<svg xmlns="http://www.w3.org/2000/svg" xmlns:xlink="http://www.w3.org/1999/xlink" width="572.809" height="409.149" viewBox="0 0 572.809 409.149">
  <defs>
    <clipPath id="clip-path">
      <rect id="사각형_2286" data-name="사각형 2286" width="572.809" height="409.149" fill="none"/>
    </clipPath>
    <filter id="사각형_2287" x="224.954" y="126.149" width="176" height="139" filterUnits="userSpaceOnUse">
      <feOffset dy="2" input="SourceAlpha"/>
      <feGaussianBlur stdDeviation="3" result="blur"/>
      <feFlood flood-opacity="0.161"/>
      <feComposite operator="in" in2="blur"/>
      <feComposite in="SourceGraphic"/>
    </filter>
  </defs>
  <g id="그룹_3784" data-name="그룹 3784" transform="translate(-845.046 -129.851)">
    <g id="그룹_3763" data-name="그룹 3763" transform="translate(845.046 129.851)" clip-path="url(#clip-path)">
      <path id="패스_2776" data-name="패스 2776" d="M290.7,712.816l-3.763,20.218a8.6,8.6,0,0,1-6.429,6.785l-.52.127a8.6,8.6,0,0,1-9.625-12.388l9.126-17.212Z" transform="translate(-139.766 -368.577)" fill="#ff6b5b"/>
      <path id="패스_2777" data-name="패스 2777" d="M290.415,684.743l2.417,2.376a4.848,4.848,0,0,0,4.676,1.22l4.119-1.125.7-5.886,7.953-17.1L295.646,661l-2.693,17.781Z" transform="translate(-150.688 -342.976)" fill="#ea9c85"/>
      <path id="패스_2778" data-name="패스 2778" d="M296.851,712.816l-5.443,13.158a4.745,4.745,0,0,1-2.148,2.371l-.6.32a5.084,5.084,0,0,1-7.037-2.41,4.751,4.751,0,0,1-.166-3.445l4.182-12.466Z" transform="translate(-145.912 -368.577)" fill="#ea9c85"/>
      <path id="패스_2779" data-name="패스 2779" d="M326.71,694.2l-2.089,2.67a4.848,4.848,0,0,1-4.478,1.815l-4.23-.582-1.457-5.745L298.223,664.5l17.691-6.4,7.508,30.51Z" transform="translate(-154.739 -341.473)" fill="#ea9c85"/>
      <path id="패스_2780" data-name="패스 2780" d="M334.992,737.018l6.353,19.559a8.6,8.6,0,0,0,7.254,5.894l.532.057A8.6,8.6,0,0,0,357.069,749l-11.281-15.884Z" transform="translate(-173.818 -380.392)" fill="#ff6b5b"/>
      <path id="패스_2781" data-name="패스 2781" d="M334.992,737.018l7.1,12.341a4.746,4.746,0,0,0,2.438,2.073l.636.24a5.083,5.083,0,0,0,6.665-3.3,4.748,4.748,0,0,0-.282-3.437l-5.763-11.818Z" transform="translate(-173.818 -380.392)" fill="#ea9c85"/>
      <path id="패스_2782" data-name="패스 2782" d="M318.948,670.522c-6.389,1.539-14.674-.019-17.677-.693l-3.046-5.226,17.431-6.3.515.938Z" transform="translate(-154.741 -341.573)" fill="#bf6b5e"/>
      <path id="패스_2783" data-name="패스 2783" d="M264.373,253.5l-16.8,5.223c-2.359,4.326,2.9,8.815,3.078,13.312s-5.081,2.883-6.974,5.719-2.369,8.949,2.632,10.2c3.454.865,23.19-4.156,23.19-4.156" transform="translate(-125.746 -131.535)"/>
      <path id="패스_2784" data-name="패스 2784" d="M283.294,245.879a16.562,16.562,0,1,1-20.274-12.3,16.77,16.77,0,0,1,20.274,12.3" transform="translate(-130.067 -120.93)"/>
      <path id="패스_2785" data-name="패스 2785" d="M291,345.5s-.951-.64-.085-7.678c.548-4.452-1.666-11.657-3.366-16.348a10.424,10.424,0,0,0-6.195-6.222l-26.541-9.8L229.1,315.96c-3,1.225-3.12,3.6-4.281,6.622-2.151,5.6-2.068,11.6-2.231,11.626a35.485,35.485,0,0,0-2.6,2.579v8.2l3.032,2.69.835,5.631.278.477a5.6,5.6,0,0,0,7.193,2.258l2.162-1,3.722,9.438a4.638,4.638,0,0,0,4.424,2.935l30.271-.722a5.855,5.855,0,0,0,5.621-4.8l1.947-10.668L291,350.271Z" transform="translate(-114.147 -158.489)" fill="#71c9b0"/>
      <path id="패스_2786" data-name="패스 2786" d="M273.914,283.245l-2.539,14.9.956.676a13.16,13.16,0,0,0,15.312-.077l1.21-.875-2.683-13.888Z" transform="translate(-140.809 -146.968)" fill="#ea9c85"/>
      <path id="패스_2787" data-name="패스 2787" d="M293.738,298.489a20.06,20.06,0,0,1-12.121-6.623l10.229-3.161Z" transform="translate(-146.123 -149.8)" fill="#bf6b5e"/>
      <path id="패스_2788" data-name="패스 2788" d="M285.849,269.138h0a10.54,10.54,0,0,1-12.84-7.572l-2.269-8.793a10.54,10.54,0,1,1,20.412-5.268l2.269,8.793a10.54,10.54,0,0,1-7.572,12.84" transform="translate(-140.304 -124.319)" fill="#ea9c85"/>
      <path id="패스_2789" data-name="패스 2789" d="M286.773,271.218a.962.962,0,1,1-1.2-.851,1.047,1.047,0,0,1,1.2.851" transform="translate(-147.824 -140.272)"/>
      <path id="패스_2790" data-name="패스 2790" d="M309.352,264.893a.962.962,0,1,1-1.2-.851,1.047,1.047,0,0,1,1.2.851" transform="translate(-159.539 -136.99)"/>
      <path id="패스_2791" data-name="패스 2791" d="M281.785,265.29a2.457,2.457,0,0,1,3.683-2.263Z" transform="translate(-146.195 -136.293)"/>
      <path id="패스_2792" data-name="패스 2792" d="M302.3,258.486a2.457,2.457,0,0,1,4.243-.826Z" transform="translate(-156.855 -133.218)"/>
      <path id="패스_2793" data-name="패스 2793" d="M269.857,240.925c1.294,5.434.324,12.741-4.606,14.3l-3.69-5.571a6.089,6.089,0,0,1,3.983-7.3Z" transform="translate(-135.615 -125.009)"/>
      <path id="패스_2794" data-name="패스 2794" d="M301.792,264.376c-.67,1.05.041,3.574.5,3.75" transform="translate(-156.449 -137.177)"/>
      <path id="패스_2795" data-name="패스 2795" d="M291.735,464.014c-.525-16.28-6.867-33.112-6.867-33.112l-34.07,1.206s-11.534,15.949-10.636,41.558,20.18,70.027,20.18,70.027,3.216,5.566,14.55,4.937c7.158-.4,16.841-4.937,16.841-4.937l-5.9-15.927c2.819-23.461,6.206-54.126,5.9-63.753" transform="translate(-124.588 -223.583)" fill="#1a1f71"/>
      <path id="패스_2796" data-name="패스 2796" d="M296.8,282.573c1.414,1.028,4.4-.235,4.4-.235" transform="translate(-154 -146.497)" fill="none" stroke="#000" stroke-miterlimit="10" stroke-width="0.509"/>
      <path id="패스_2797" data-name="패스 2797" d="M285.167,233.051c.695,2.691-1.491,5.583-4.882,6.458s-6.7-.6-7.4-3.289,1.491-5.583,4.882-6.458,6.7.6,7.4,3.289" transform="translate(-141.526 -119.086)"/>
      <path id="패스_2798" data-name="패스 2798" d="M304.112,233.84c2.542,2.184,3.283,5.49,1.656,7.383s-5.007,1.659-7.548-.524-3.283-5.489-1.656-7.383,5.007-1.659,7.548.524" transform="translate(-153.431 -120.397)"/>
      <path id="패스_2799" data-name="패스 2799" d="M270,264.59s.957,4.4-.353,6.787-5.443-4.9-5.443-4.9Z" transform="translate(-137.089 -137.288)"/>
      <path id="패스_2800" data-name="패스 2800" d="M272.253,275.044c.558,2.162-.308,4.255-1.935,4.675s-3.4-.993-3.956-3.154.308-4.255,1.935-4.675,3.4.993,3.955,3.155" transform="translate(-138.12 -141.037)" fill="#ea9c85"/>
      <path id="패스_2801" data-name="패스 2801" d="M271.316,276.17c-1.711-.485-3.084.9-2.567,2.315" transform="translate(-139.389 -143.245)" fill="none" stroke="#000" stroke-miterlimit="10" stroke-width="0.509"/>
      <path id="패스_2802" data-name="패스 2802" d="M331.864,374.486l6.413-7.286,1.829,9.829-5.566,2.5Z" transform="translate(-172.194 -190.53)" fill="#ea9c85"/>
      <path id="패스_2803" data-name="패스 2803" d="M334.807,372.631l1.26-7.328a1.444,1.444,0,0,1,1.445,1.444v4.037Z" transform="translate(-173.722 -189.545)" fill="#ea9c85"/>
      <path id="패스_2804" data-name="패스 2804" d="M317,578.645c-.755,6.774-.253,2.4-1.008,8.684,0,0-13.972-21.309-17.768-41.632Z" transform="translate(-154.739 -283.146)"/>
      <path id="패스_2805" data-name="패스 2805" d="M257.61,368.49a6.6,6.6,0,0,1,1.164,3.71c0,2.192.1,5.4.1,5.4l3.555,8.907,9.212-4.8s-5.96-2.032-8.4-4.606-5.634-8.611-5.634-8.611" transform="translate(-133.666 -191.199)" fill="#58a08a"/>
      <path id="패스_2806" data-name="패스 2806" d="M297.842,393.257l.01-.1-5.345-6.49-38.577,15.411s-.4.467-.895,1.184l1.323,3.353a4.637,4.637,0,0,0,4.426,2.935l1.458-.033c11.1-3.941,30.792-16.094,30.792-16.094l4.686,4.855Z" transform="translate(-131.292 -200.63)" fill="#58a08a"/>
      <path id="패스_2807" data-name="패스 2807" d="M237.847,394.4s4.819,6.613,8.63,8.277c4.887,2.133,12.473-.373,21.455-6.666,17.5-12.256,18.528-10.634,18.528-10.634l-1.411-6.306s-17.092,4.473-24.881,7.219-9.112,3.19-9.112,3.19l-2.435-6.389Z" transform="translate(-123.412 -196.687)" fill="#ea9c85"/>
      <path id="패스_2808" data-name="패스 2808" d="M261.645,400.7s-4.016,1.889-3.309,5.034" transform="translate(-133.999 -207.913)" fill="none" stroke="#bf6b5e" stroke-miterlimit="10" stroke-width="0.567"/>
      <path id="패스_2809" data-name="패스 2809" d="M338.5,360.79a5.841,5.841,0,0,0,9.726-.672c2.606-4.719,4.451-12.27.775-23.215l-7.045-20.978-5.395,1.874s.124,17.173,1.647,25.29,1.518,8.155,1.518,8.155l-5.086,2.115Z" transform="translate(-173.632 -163.924)" fill="#ea9c85"/>
      <path id="패스_2810" data-name="패스 2810" d="M320.45,312.246l1.63,3.646a.7.7,0,0,0,1.324-.441l-.768-3.383Z" transform="translate(-166.272 -161.923)" fill="#e2a48f"/>
      <path id="패스_2811" data-name="패스 2811" d="M334.52,306.224l-6.012-7.979a2.363,2.363,0,0,0-1.669-.9l-1.241-.1a3.8,3.8,0,0,0-3.909,2.574l-1.3,3.875a1.407,1.407,0,0,0,.642,1.675c1.373.774,3.778,2.1,4.845,2.529.785.313,3.257.908,3.257.908Z" transform="translate(-166.202 -154.224)" fill="#ea9c85"/>
      <path id="패스_2812" data-name="패스 2812" d="M326.185,293.891l-4.086-3.057-3.875-.535a1.344,1.344,0,0,0,.877,1.26l2.374.878,2.316,2.405Z" transform="translate(-165.118 -150.628)" fill="#ea9c85"/>
      <path id="패스_2813" data-name="패스 2813" d="M325.183,298.459l-.521-.2a1.055,1.055,0,0,0-1.191,1.66l.56.673Z" transform="translate(-167.712 -154.72)" fill="#ea9c85"/>
      <path id="패스_2814" data-name="패스 2814" d="M323.149,302.537l-.521-.2A1.055,1.055,0,0,0,321.436,304l.561.673Z" transform="translate(-166.657 -156.836)" fill="#ea9c85"/>
      <path id="패스_2815" data-name="패스 2815" d="M321.4,306.9l-.543-.131a1.055,1.055,0,0,0-.964,1.8l.643.594Z" transform="translate(-165.806 -159.159)" fill="#ea9c85"/>
      <path id="패스_2816" data-name="패스 2816" d="M271.007,342.92a.722.722,0,0,0,0-1.443.722.722,0,0,0,0,1.443" transform="translate(-140.256 -177.182)" fill="#fff"/>
      <path id="패스_2817" data-name="패스 2817" d="M244.54,376.144a.722.722,0,0,0,0-1.443.722.722,0,0,0,0,1.443" transform="translate(-126.523 -194.421)" fill="#fff"/>
      <path id="패스_2818" data-name="패스 2818" d="M294.1,354.182a.722.722,0,0,0,0-1.443.722.722,0,0,0,0,1.443" transform="translate(-152.236 -183.026)" fill="#fff"/>
      <path id="패스_2819" data-name="패스 2819" d="M282.27,372.765a.722.722,0,0,0,0-1.443.722.722,0,0,0,0,1.443" transform="translate(-146.1 -192.668)" fill="#fff"/>
      <path id="패스_2820" data-name="패스 2820" d="M319.435,332.784a.722.722,0,0,0,0-1.443.722.722,0,0,0,0,1.443" transform="translate(-165.384 -171.923)" fill="#fff"/>
      <path id="패스_2821" data-name="패스 2821" d="M335.2,341.793a.722.722,0,0,0,0-1.443.722.722,0,0,0,0,1.443" transform="translate(-173.565 -176.598)" fill="#fff"/>
      <path id="패스_2822" data-name="패스 2822" d="M320,368.26a.722.722,0,0,0,0-1.443.722.722,0,0,0,0,1.443" transform="translate(-165.676 -190.331)" fill="#fff"/>
      <path id="패스_2823" data-name="패스 2823" d="M331.261,413.873a.722.722,0,0,0,0-1.443.722.722,0,0,0,0,1.443" transform="translate(-171.52 -213.998)" fill="#fff"/>
      <path id="패스_2824" data-name="패스 2824" d="M314.745,422.32a.722.722,0,0,0,0-1.443.722.722,0,0,0,0,1.443" transform="translate(-162.95 -218.381)" fill="#fff"/>
      <path id="패스_2825" data-name="패스 2825" d="M246.23,333.347a.722.722,0,0,0,0-1.443.722.722,0,0,0,0,1.443" transform="translate(-127.4 -172.215)" fill="#fff"/>
      <path id="패스_2826" data-name="패스 2826" d="M232.152,365.245a.722.722,0,0,0,0-1.443.722.722,0,0,0,0,1.443" transform="translate(-120.095 -188.766)" fill="#fff"/>
      <path id="패스_2827" data-name="패스 2827" d="M252.281,357.892a.722.722,0,0,0,0-1.443.722.722,0,0,0,0,1.443" transform="translate(-130.54 -184.951)" fill="#fff"/>
      <path id="패스_2828" data-name="패스 2828" d="M291.28,325.463a.722.722,0,0,0,0-1.443.722.722,0,0,0,0,1.443" transform="translate(-150.775 -168.125)" fill="#fff"/>
      <path id="패스_2829" data-name="패스 2829" d="M289.027,424.009a.722.722,0,0,0,0-1.443.722.722,0,0,0,0,1.443" transform="translate(-149.606 -219.257)" fill="#fff"/>
      <path id="패스_2830" data-name="패스 2830" d="M232.152,397.542a.722.722,0,0,0,0-1.443.722.722,0,0,0,0,1.443" transform="translate(-120.095 -205.524)" fill="#fff"/>
      <path id="패스_2831" data-name="패스 2831" d="M298.6,377.833a.722.722,0,0,0,0-1.443.722.722,0,0,0,0,1.443" transform="translate(-154.573 -195.298)" fill="#fff"/>
      <path id="패스_2832" data-name="패스 2832" d="M271.57,390.222a.722.722,0,0,0,0-1.443.722.722,0,0,0,0,1.443" transform="translate(-140.548 -201.726)" fill="#fff"/>
      <path id="패스_2833" data-name="패스 2833" d="M225.8,356.826l7.857,4.08c-3.387-1.477-8.266-.038-8.266-.038Z" transform="translate(-116.95 -185.147)" fill="#58a08a"/>
      <path id="패스_2834" data-name="패스 2834" d="M224.443,387.265l8.723-3.989-7.414,7.626Z" transform="translate(-116.457 -198.871)" fill="#58a08a"/>
    </g>
    <g transform="matrix(1, 0, 0, 1, 845.05, 129.85)" filter="url(#사각형_2287)">
      <rect id="사각형_2287-2" data-name="사각형 2287" width="158" height="121" rx="10" transform="translate(233.95 133.15)" fill="#fff"/>
    </g>
    <g id="그룹_3765" data-name="그룹 3765">
      <rect id="사각형_2288" data-name="사각형 2288" width="137.211" height="33.662" transform="translate(1089.395 280.973)" fill="#f8f8f8"/>
      <path id="패스_2836" data-name="패스 2836" d="M807.557,580.9a4.353,4.353,0,1,1,4.354,4.353,4.353,4.353,0,0,1-4.354-4.353" transform="translate(296.011 -282.965)" fill="#71c9b0"/>
      <path id="패스_2837" data-name="패스 2837" d="M870.021,585.048H850.968a3.421,3.421,0,0,1,0-6.841h19.053a3.421,3.421,0,0,1,0,6.841Z" transform="translate(275.261 -283.824)" fill="none" stroke="#1a1f71" stroke-miterlimit="10" stroke-width="1"/>
      <path id="패스_2838" data-name="패스 2838" d="M963.1,585.048H914.678a3.421,3.421,0,0,1,0-6.841H963.1a3.421,3.421,0,0,1,0,6.841Z" transform="translate(242.204 -283.824)" fill="none" stroke="#1a1f71" stroke-miterlimit="10" stroke-width="1"/>
      <line id="선_27" data-name="선 27" x2="34.951" transform="translate(1142.797 311.135)" fill="none" stroke="#b2b2b2" stroke-miterlimit="10" stroke-width="1"/>
      <line id="선_28" data-name="선 28" x2="54.862" transform="translate(1122.434 306.597)" fill="none" stroke="#b2b2b2" stroke-miterlimit="10" stroke-width="1"/>
    </g>
    <g id="그룹_3766" data-name="그룹 3766" transform="translate(0 41.172)">
      <rect id="사각형_2288-2" data-name="사각형 2288" width="137.211" height="33.662" transform="translate(1089.395 280.973)" fill="#f8f8f8"/>
      <path id="패스_2836-2" data-name="패스 2836" d="M807.557,580.9a4.353,4.353,0,1,1,4.354,4.353,4.353,4.353,0,0,1-4.354-4.353" transform="translate(296.011 -282.965)" fill="#f1928b"/>
      <path id="패스_2837-2" data-name="패스 2837" d="M870.021,585.048H850.968a3.421,3.421,0,0,1,0-6.841h19.053a3.421,3.421,0,0,1,0,6.841Z" transform="translate(275.261 -283.824)" fill="none" stroke="#1a1f71" stroke-miterlimit="10" stroke-width="1"/>
      <path id="패스_2838-2" data-name="패스 2838" d="M963.1,585.048H914.678a3.421,3.421,0,0,1,0-6.841H963.1a3.421,3.421,0,0,1,0,6.841Z" transform="translate(242.204 -283.824)" fill="none" stroke="#1a1f71" stroke-miterlimit="10" stroke-width="1"/>
      <line id="선_27-2" data-name="선 27" x2="34.951" transform="translate(1142.797 311.135)" fill="none" stroke="#b2b2b2" stroke-miterlimit="10" stroke-width="1"/>
      <line id="선_28-2" data-name="선 28" x2="54.862" transform="translate(1122.434 306.597)" fill="none" stroke="#b2b2b2" stroke-miterlimit="10" stroke-width="1"/>
    </g>
  </g>
</svg>
