<svg xmlns="http://www.w3.org/2000/svg" xmlns:xlink="http://www.w3.org/1999/xlink" width="1340" height="610" viewBox="0 0 1340 610"><defs><style>.a{fill:none;}.b{fill:#fff;}.c{opacity:0.32;}.d{clip-path:url(#c);}.e,.f{fill:#ff8d8d;}.f{opacity:0.28;}.g{fill:#2a3ad1;}.h{opacity:0.15;}.i{filter:url(#a);}</style><filter id="a" x="0" y="0" width="1340" height="610" filterUnits="userSpaceOnUse"><feOffset dy="3" input="SourceAlpha"/><feGaussianBlur stdDeviation="10" result="b"/><feFlood flood-opacity="0.161"/><feComposite operator="in" in2="b"/><feComposite in="SourceGraphic"/></filter><clipPath id="c"><circle class="a" cx="78" cy="78" r="78" transform="translate(-0.481 -0.481)"/></clipPath></defs><g transform="translate(-288 -129)"><g class="i" transform="matrix(1, 0, 0, 1, 288, 129)"><rect class="b" width="1280" height="550" rx="36" transform="translate(30 27)"/></g><g class="c" transform="translate(1039.772 -1708.331)"><g transform="translate(397.709 2069.813)"><g class="d" transform="translate(0 0)"><g transform="translate(-77.107 -38.915)"><rect class="e" width="4.549" height="224.596" transform="matrix(0.707, 0.707, -0.707, 0.707, 158.814, 0)"/><rect class="e" width="4.549" height="224.596" transform="translate(175.303 5.117) rotate(45)"/><rect class="e" width="4.549" height="224.596" transform="translate(191.793 10.235) rotate(45)"/><rect class="e" width="4.549" height="224.596" transform="translate(208.282 15.352) rotate(45)"/><rect class="e" width="4.549" height="224.596" transform="matrix(0.707, 0.707, -0.707, 0.707, 224.771, 20.47)"/><rect class="e" width="4.549" height="224.596" transform="matrix(0.707, 0.707, -0.707, 0.707, 241.261, 25.587)"/><rect class="e" width="4.549" height="224.596" transform="translate(257.75 30.704) rotate(45)"/><rect class="e" width="4.549" height="224.596" transform="translate(274.239 35.822) rotate(45)"/><rect class="e" width="4.549" height="224.596" transform="translate(290.729 40.939) rotate(45)"/><rect class="e" width="4.549" height="224.596" transform="matrix(0.707, 0.707, -0.707, 0.707, 307.218, 46.056)"/><rect class="e" width="4.549" height="224.596" transform="translate(323.707 51.174) rotate(45)"/></g></g></g></g><path class="f" d="M1463.19,577.007l-18.361-18.361-18.362,18.361-18.361-18.361-18.361,18.361-18.362-18.361-16.878,16.878-2.968-2.967,19.845-19.845,18.362,18.361,18.361-18.361,18.361,18.361,18.362-18.361,18.361,18.361,18.361-18.361,19.845,19.845-2.967,2.967-16.878-16.878Z" transform="translate(-559.397 -364.784)"/><path class="f" d="M1463.19,577.007l-18.361-18.361-18.362,18.361-18.361-18.361-18.361,18.361-18.362-18.361-16.878,16.878-2.968-2.967,19.845-19.845,18.362,18.361,18.361-18.361,18.361,18.361,18.362-18.361,18.361,18.361,18.361-18.361,19.845,19.845-2.967,2.967-16.878-16.878Z" transform="translate(-11.467 102.289)"/><g transform="translate(1140.607 -162.313)"><circle class="e" cx="79" cy="79" r="79" transform="translate(220.393 458.313)"/><g transform="translate(299.296 402.313)"><g transform="translate(0)"><circle class="g" cx="5" cy="5" r="5" transform="translate(0.097 0)"/><circle class="g" cx="5" cy="5" r="5" transform="translate(26.097 0)"/><circle class="g" cx="5" cy="5" r="5" transform="translate(52.097 0)"/><circle class="g" cx="5" cy="5" r="5" transform="translate(78.097 0)"/><circle class="g" cx="5" cy="5" r="5" transform="translate(104.097 0)"/><ellipse class="g" cx="4.5" cy="5" rx="4.5" ry="5" transform="translate(131.097 0)"/></g><g transform="translate(0 25.766)"><ellipse class="g" cx="5" cy="4.5" rx="5" ry="4.5" transform="translate(0.097 0.234)"/><ellipse class="g" cx="5" cy="4.5" rx="5" ry="4.5" transform="translate(26.097 0.234)"/><ellipse class="g" cx="5" cy="4.5" rx="5" ry="4.5" transform="translate(52.097 0.234)"/><ellipse class="g" cx="5" cy="4.5" rx="5" ry="4.5" transform="translate(78.097 0.234)"/><ellipse class="g" cx="5" cy="4.5" rx="5" ry="4.5" transform="translate(104.097 0.234)"/><circle class="g" cx="4.5" cy="4.5" r="4.5" transform="translate(131.097 0.234)"/></g><g transform="translate(0 51.532)"><ellipse class="g" cx="5" cy="4.5" rx="5" ry="4.5" transform="translate(0.097 0.468)"/><ellipse class="g" cx="5" cy="4.5" rx="5" ry="4.5" transform="translate(26.097 0.468)"/><ellipse class="g" cx="5" cy="4.5" rx="5" ry="4.5" transform="translate(52.097 0.468)"/><ellipse class="g" cx="5" cy="4.5" rx="5" ry="4.5" transform="translate(78.097 0.468)"/><ellipse class="g" cx="5" cy="4.5" rx="5" ry="4.5" transform="translate(104.097 0.468)"/><circle class="g" cx="4.5" cy="4.5" r="4.5" transform="translate(131.097 0.468)"/></g><g transform="translate(0 77.298)"><circle class="g" cx="5" cy="5" r="5" transform="translate(0.097 -0.298)"/><circle class="g" cx="5" cy="5" r="5" transform="translate(26.097 -0.298)"/><circle class="g" cx="5" cy="5" r="5" transform="translate(52.097 -0.298)"/><circle class="g" cx="5" cy="5" r="5" transform="translate(78.097 -0.298)"/><circle class="g" cx="5" cy="5" r="5" transform="translate(104.097 -0.298)"/><ellipse class="g" cx="4.5" cy="5" rx="4.5" ry="5" transform="translate(131.097 -0.298)"/></g><g transform="translate(0 103.064)"><circle class="g" cx="5" cy="5" r="5" transform="translate(0.097 -0.064)"/><circle class="g" cx="5" cy="5" r="5" transform="translate(26.097 -0.064)"/><circle class="g" cx="5" cy="5" r="5" transform="translate(52.097 -0.064)"/><circle class="g" cx="5" cy="5" r="5" transform="translate(78.097 -0.064)"/><circle class="g" cx="5" cy="5" r="5" transform="translate(104.097 -0.064)"/><ellipse class="g" cx="4.5" cy="5" rx="4.5" ry="5" transform="translate(131.097 -0.064)"/></g><g transform="translate(0 128.829)"><ellipse class="g" cx="5" cy="4.5" rx="5" ry="4.5" transform="translate(0.097 0.171)"/><ellipse class="g" cx="5" cy="4.5" rx="5" ry="4.5" transform="translate(26.097 0.171)"/><ellipse class="g" cx="5" cy="4.5" rx="5" ry="4.5" transform="translate(52.097 0.171)"/><ellipse class="g" cx="5" cy="4.5" rx="5" ry="4.5" transform="translate(78.097 0.171)"/><ellipse class="g" cx="5" cy="4.5" rx="5" ry="4.5" transform="translate(104.097 0.171)"/><circle class="g" cx="4.5" cy="4.5" r="4.5" transform="translate(131.097 0.171)"/></g></g></g><g transform="translate(108 -21)"><g class="h" transform="translate(-3211.709 -1062.812)"><path class="e" d="M3908.02,1902.433a56.311,56.311,0,1,1,0-112.621v2.325A53.985,53.985,0,1,0,3962,1846.123h2.325a56.265,56.265,0,0,1-56.311,56.311Z" transform="translate(0 -131.621)"/><path class="e" d="M4449.52,1692.123h-2.325a54.047,54.047,0,0,0-53.985-53.985v-2.325a56.265,56.265,0,0,1,56.311,56.311Z" transform="translate(-462.811)"/></g></g></g></svg>