<svg xmlns="http://www.w3.org/2000/svg" xmlns:xlink="http://www.w3.org/1999/xlink" width="487" height="638" viewBox="0 0 487 638"><defs><style>.a{fill:#f1928b;stroke:#eee;}.b{fill:#fbf9f9;}.c,.e{fill:#20160f;}.c{font-size:26px;font-family:AppleSDGothicNeoB00;}.d{fill:#fff;}.e{font-size:20px;font-family:AppleSDGothicNeoM00;}.f{stroke:none;}.g{fill:none;}.h{filter:url(#a);}</style><filter id="a" x="0" y="0" width="487" height="638" filterUnits="userSpaceOnUse"><feOffset dy="10" input="SourceAlpha"/><feGaussianBlur stdDeviation="10" result="b"/><feFlood flood-opacity="0.161"/><feComposite operator="in" in2="b"/><feComposite in="SourceGraphic"/></filter></defs><g transform="translate(-845 -771)"><g class="h" transform="matrix(1, 0, 0, 1, 845, 771)"><g class="a" transform="translate(30 20)"><rect class="f" width="427" height="578" rx="20"/><rect class="g" x="0.5" y="0.5" width="426" height="577" rx="19.5"/></g></g><path class="b" d="M0,0H326a20,20,0,0,1,20,20V578a0,0,0,0,1,0,0H20A20,20,0,0,1,0,558V0A0,0,0,0,1,0,0Z" transform="translate(956 791)"/><text class="c" transform="translate(991 845)"><tspan x="0" y="0">학습 날짜 선택</tspan></text><text class="c" transform="translate(991 964)"><tspan x="0" y="0">강의</tspan></text><text class="c" transform="translate(991 1083)"><tspan x="0" y="0">학습 챕터</tspan></text><text class="c" transform="translate(991 1202)"><tspan x="0" y="0">Today I Learned</tspan></text><rect class="d" width="278" height="127" rx="10" transform="translate(991 1228)"/><rect class="d" width="285" height="52" rx="10" transform="translate(987 871)"/><rect class="d" width="285" height="52" rx="10" transform="translate(987 990)"/><rect class="d" width="285" height="52" rx="10" transform="translate(987 1109)"/><text class="e" transform="translate(1009 903)"><tspan x="0" y="0">2021 07 20</tspan></text><text class="e" transform="translate(1009 1022)"><tspan x="0" y="0">바닐라 JS로 크롬 앱 만들기</tspan></text><text class="e" transform="translate(1009 1141)"><tspan x="0" y="0">1강 What Are We Buildin</tspan></text></g></svg>