<svg xmlns="http://www.w3.org/2000/svg" width="120" height="41" viewBox="0 0 120 41"><defs><style>.a,.b{fill:#ff8d8d;}.b{opacity:0.6;}</style></defs><g transform="translate(-338 -20)"><rect class="a" width="41" height="6" rx="3" transform="translate(371 20) rotate(90)"/><g transform="translate(435.008 20)"><rect class="a" width="41" height="6" rx="3" transform="translate(5.991) rotate(90)"/><rect class="a" width="19" height="7" rx="3.5" transform="translate(22.991) rotate(90)"/><rect class="b" width="23" height="6" rx="3" transform="translate(-0.009)"/><rect class="b" width="23" height="6" rx="3" transform="translate(-0.009 13)"/></g><g transform="translate(375.185 20)"><rect class="a" width="41" height="6" rx="3" transform="translate(5.814) rotate(90)"/><rect class="b" width="28" height="6" rx="3" transform="translate(27.814 41) rotate(180)"/></g><g transform="translate(407.184 20)"><rect class="b" width="41" height="6" rx="3" transform="translate(23.816) rotate(90)"/><rect class="a" width="41" height="6" rx="3" transform="translate(5.816) rotate(90)"/><rect class="a" width="24" height="6" rx="3" transform="translate(23.816 41) rotate(180)"/></g><rect class="b" width="23" height="6" rx="3" transform="translate(338 20)"/><rect class="a" width="41" height="6" rx="3" transform="translate(352 20) rotate(90)"/></g></svg>