<svg xmlns="http://www.w3.org/2000/svg" width="32" height="32" viewBox="0 0 32 32">
  <g id="그룹_3741" data-name="그룹 3741" transform="translate(-559 -367)">
    <rect id="사각형_2274" data-name="사각형 2274" width="32" height="32" rx="7" transform="translate(559 367)" fill="#fff"/>
    <g id="그룹_3740" data-name="그룹 3740">
      <path id="패스_2734" data-name="패스 2734" d="M-738.62,219.1h13.032v.175q0,5.417,0,10.833a1.957,1.957,0,0,1-1.855,1.9,2.062,2.062,0,0,1-.322.019q-4.336,0-8.673,0a2.043,2.043,0,0,1-2.179-1.789c0-.059,0-.119,0-.179q0-5.384,0-10.768Z" transform="translate(1307.104 159.364)" fill="#707070"/>
      <path id="패스_2735" data-name="패스 2735" d="M-732.125,164.611q-2.689,0-5.379,0a1.087,1.087,0,0,1-1.051-1.464,1.092,1.092,0,0,1,.947-.714c.051,0,.1,0,.153,0h10.707a1.088,1.088,0,0,1,1.112.77,1.088,1.088,0,0,1-.99,1.408c-.362.011-.724,0-1.086,0Z" transform="translate(1307.104 212.967)" fill="#707070"/>
      <path id="패스_2736" data-name="패스 2736" d="M-696.23,113.039c-.947,0-1.894,0-2.842,0-.417,0-.689-.724-.556-1.464.071-.394.282-.7.5-.714.027,0,.054,0,.081,0h5.657c.292,0,.508.285.587.77.111.676-.15,1.386-.523,1.408-.191.011-.382,0-.574,0Z" transform="translate(1271.219 261.469)" fill="#707070"/>
    </g>
  </g>
</svg>
