<svg xmlns="http://www.w3.org/2000/svg" xmlns:xlink="http://www.w3.org/1999/xlink" width="572.809" height="409.149" viewBox="0 0 572.809 409.149">
  <defs>
    <clipPath id="clip-path">
      <rect id="사각형_2281" data-name="사각형 2281" width="572.809" height="409.149" fill="none"/>
    </clipPath>
    <clipPath id="clip-path-2">
      <rect id="사각형_2279" data-name="사각형 2279" width="136.992" height="182.468" fill="none"/>
    </clipPath>
    <clipPath id="clip-path-3">
      <rect id="사각형_2280" data-name="사각형 2280" width="136.992" height="160.457" fill="none"/>
    </clipPath>
    <clipPath id="clip-path-4">
      <rect id="사각형_2284" data-name="사각형 2284" width="61.64" height="40.899" fill="none"/>
    </clipPath>
  </defs>
  <g id="그룹_3783" data-name="그룹 3783" transform="translate(-845.046 -129.851)">
    <g id="그룹_3757" data-name="그룹 3757" transform="translate(845.046 129.851)">
      <g id="그룹_3756" data-name="그룹 3756" clip-path="url(#clip-path)">
        <path id="패스_2741" data-name="패스 2741" d="M589.317,762.675c0,4.653-33.01,8.425-73.729,8.425s-73.729-3.772-73.729-8.425,33.01-8.425,73.729-8.425,73.729,3.772,73.729,8.425" transform="translate(-229.268 -391.358)" fill="#b7ccd1"/>
        <path id="패스_2742" data-name="패스 2742" d="M318.211,763.284c0,4.653-18.6,8.425-41.548,8.425s-41.549-3.772-41.549-8.425,18.6-8.425,41.549-8.425,41.548,3.772,41.548,8.425" transform="translate(-121.994 -391.674)" fill="#b7ccd1"/>
        <path id="패스_2743" data-name="패스 2743" d="M594.514,417.227H465.1a8.331,8.331,0,0,1-8.331-8.331V139.761a8.331,8.331,0,0,1,8.331-8.331H594.514a8.331,8.331,0,0,1,8.331,8.331V408.9a8.331,8.331,0,0,1-8.331,8.331" transform="translate(-237.002 -68.195)" fill="#0f4b93"/>
        <path id="패스_2744" data-name="패스 2744" d="M579.7,417.227H450.287a8.331,8.331,0,0,1-8.331-8.331V139.761a8.331,8.331,0,0,1,8.331-8.331H579.7a8.331,8.331,0,0,1,8.331,8.331V408.9a8.331,8.331,0,0,1-8.331,8.331" transform="translate(-229.318 -68.195)" fill="#1a1f71"/>
        <path id="패스_2745" data-name="패스 2745" d="M451.4,413.876v-269a3.719,3.719,0,0,1,3.719-3.719H584.673a3.719,3.719,0,0,1,3.719,3.719v269a3.719,3.719,0,0,1-3.719,3.719H455.119a3.718,3.718,0,0,1-3.719-3.719" transform="translate(-234.218 -73.244)" fill="#6ed7cf"/>
        <g id="그룹_3752" data-name="그룹 3752" transform="translate(217.182 108.237)" opacity="0.49">
          <g id="그룹_3751" data-name="그룹 3751">
            <g id="그룹_3750" data-name="그룹 3750" clip-path="url(#clip-path-2)">
              <path id="패스_2746" data-name="패스 2746" d="M588.392,361.962v45.471L451.4,270.442V224.965Z" transform="translate(-451.4 -224.965)" fill="#a2e4ff"/>
            </g>
          </g>
        </g>
        <g id="그룹_3755" data-name="그룹 3755" transform="translate(217.182 179.632)" opacity="0.49">
          <g id="그룹_3754" data-name="그룹 3754">
            <g id="그룹_3753" data-name="그룹 3753" clip-path="url(#clip-path-3)">
              <path id="패스_2747" data-name="패스 2747" d="M588.392,510.343v23.469L451.4,396.825v-23.47Z" transform="translate(-451.4 -373.355)" fill="#a2e4ff"/>
            </g>
          </g>
        </g>
        <path id="패스_2748" data-name="패스 2748" d="M585.67,161.938H539.49a1.962,1.962,0,1,1,0-3.924h46.18a1.962,1.962,0,0,1,0,3.924" transform="translate(-278.908 -81.989)" fill="#1a1f71"/>
        <path id="패스_2749" data-name="패스 2749" d="M648.114,160.266a1.655,1.655,0,1,1,1.655,1.655,1.654,1.654,0,0,1-1.655-1.655" transform="translate(-336.288 -82.299)" fill="#1a1f71"/>
      </g>
    </g>
    <rect id="사각형_2282" data-name="사각형 2282" width="137.211" height="33.662" transform="translate(1219.412 434.705)" fill="#e6e6e6"/>
    <path id="패스_2750" data-name="패스 2750" d="M807.557,663.91a4.353,4.353,0,1,1,4.354,4.354,4.353,4.353,0,0,1-4.354-4.354" transform="translate(426.028 -212.374)" fill="#ff6b5b"/>
    <path id="패스_2751" data-name="패스 2751" d="M900.841,668.337H850.968a3.421,3.421,0,0,1,0-6.842h49.873a3.421,3.421,0,0,1,0,6.842Z" transform="translate(405.279 -213.38)" fill="none" stroke="#1a1f71" stroke-miterlimit="10" stroke-width="1"/>
    <line id="선_20" data-name="선 20" x2="89.813" transform="translate(1252.451 461.168)" fill="none" stroke="#b2b2b2" stroke-miterlimit="10" stroke-width="1"/>
    <line id="선_23" data-name="선 23" x2="9.913" y2="19.426" transform="translate(959.674 208.675)" fill="none" stroke="#bcc2d3" stroke-miterlimit="10" stroke-width="1.984"/>
    <line id="선_24" data-name="선 24" x2="18.298" y2="11.868" transform="translate(940.327 227.925)" fill="none" stroke="#bcc2d3" stroke-miterlimit="10" stroke-width="1.984"/>
    <line id="선_25" data-name="선 25" x2="21.78" y2="1.129" transform="translate(933.198 254.269)" fill="none" stroke="#bcc2d3" stroke-miterlimit="10" stroke-width="1.984"/>
    <g id="그룹_3758" data-name="그룹 3758" transform="translate(1220.672 202.295)" clip-path="url(#clip-path-4)">
      <path id="패스_2756" data-name="패스 2756" d="M790.76,150.572a10.043,10.043,0,0,0-10.043,10.043v30.857l12.035-14.693h38.479a11.125,11.125,0,0,0,11.126-11.126V161.7a11.126,11.126,0,0,0-11.126-11.126Z" transform="translate(-780.717 -150.572)" fill="#4b7de6"/>
    </g>
    <path id="패스_2757" data-name="패스 2757" d="M819.005,176.32H806.056a3.251,3.251,0,1,1,0-6.5h12.949a3.251,3.251,0,0,1,0,6.5Z" transform="translate(428.494 41.737)" fill="none" stroke="#fff" stroke-miterlimit="10" stroke-width="1"/>
    <path id="패스_2758" data-name="패스 2758" d="M858.487,176.32h-2.571a3.251,3.251,0,1,1,0-6.5h2.571a3.251,3.251,0,0,1,0,6.5Z" transform="translate(402.623 41.737)" fill="none" stroke="#fff" stroke-miterlimit="10" stroke-width="1"/>
    <path id="패스_2759" data-name="패스 2759" d="M901.714,322.46c-21.057,0-38.127,6.816-38.127,15.223,0,3.593,3.118,6.9,8.332,9.5a48.3,48.3,0,0,0,10.183,3.551c-3.407,4.885-13.484,8.876-13.484,8.876s18.627-.788,26.144-6.959c2.255.166,4.577.255,6.952.255,21.058,0,38.127-6.816,38.127-15.223s-17.07-15.223-38.127-15.223" transform="translate(396.956 -37.464)" fill="#f08929"/>
    <path id="패스_2760" data-name="패스 2760" d="M923.183,354.081H897.252a3.251,3.251,0,1,1,0-6.5h25.931a3.251,3.251,0,1,1,0,6.5Z" transform="translate(381.175 -50.498)" fill="none" stroke="#fff" stroke-miterlimit="10" stroke-width="1"/>
    <path id="패스_2761" data-name="패스 2761" d="M967.231,351.61a2.529,2.529,0,1,1,2.529,2.528A2.529,2.529,0,0,1,967.231,351.61Z" transform="translate(343.178 -51.277)" fill="none" stroke="#fff" stroke-miterlimit="10" stroke-width="1"/>
    <path id="패스_2762" data-name="패스 2762" d="M985.815,351.61a2.529,2.529,0,1,1,2.528,2.528A2.529,2.529,0,0,1,985.815,351.61Z" transform="translate(333.535 -51.277)" fill="none" stroke="#fff" stroke-miterlimit="10" stroke-width="1"/>
    <path id="패스_2763" data-name="패스 2763" d="M975.3,444.21H936.089a12.278,12.278,0,1,0,0,24.555h28.575c2.67,2.763,9.3,8.629,16.133,6.96,0,0-6.007-2.812-8.173-6.984,8.938.025,14.952-5.635,14.952-12.253A12.278,12.278,0,0,0,975.3,444.21" transform="translate(365.708 -100.637)" fill="#ff6b5b"/>
    <path id="패스_2764" data-name="패스 2764" d="M1011.914,470.239H997.39a3.251,3.251,0,0,1,0-6.5h14.524a3.251,3.251,0,1,1,0,6.5Z" transform="translate(329.216 -110.769)" fill="none" stroke="#fff" stroke-miterlimit="10" stroke-width="1"/>
    <path id="패스_2765" data-name="패스 2765" d="M970.949,467.183a3.071,3.071,0,1,1,3.071,3.071A3.071,3.071,0,0,1,970.949,467.183Z" transform="translate(341.249 -110.964)" fill="none" stroke="#fff" stroke-miterlimit="10" stroke-width="1"/>
    <path id="패스_2766" data-name="패스 2766" d="M943.195,467.574a3.071,3.071,0,1,1,3.071,3.071A3.07,3.07,0,0,1,943.195,467.574Z" transform="translate(355.65 -111.166)" fill="none" stroke="#fff" stroke-miterlimit="10" stroke-width="1"/>
    <path id="패스_2767" data-name="패스 2767" d="M268.465,536.96H141.657a6.164,6.164,0,1,1,0-12.327H268.465a6.164,6.164,0,1,1,0,12.327Z" transform="translate(774.743 -142.366)" fill="none" stroke="#b2b2b2" stroke-miterlimit="10" stroke-width="1"/>
    <line id="선_26" data-name="선 26" x2="124.449" transform="translate(916.427 388.431)" fill="none" stroke="#b2b2b2" stroke-miterlimit="10" stroke-width="1"/>
    <path id="패스_2768" data-name="패스 2768" d="M75.475,537.9H50.949a3.318,3.318,0,0,1,0-6.636H75.475a3.318,3.318,0,0,1,0,6.636" transform="translate(820.332 -145.806)" fill="#ff6b5b"/>
    <path id="패스_2771" data-name="패스 2771" d="M124.249,204.161H14.031a3.318,3.318,0,0,1,0-6.636H124.249a3.318,3.318,0,0,1,0,6.636" transform="translate(839.488 27.361)" fill="#e9eaed"/>
    <path id="패스_2772" data-name="패스 2772" d="M67.943,204.161H14.031a3.318,3.318,0,1,1,0-6.636H67.943a3.318,3.318,0,1,1,0,6.636" transform="translate(839.488 27.361)" fill="#71c9b0"/>
    <path id="패스_2773" data-name="패스 2773" d="M38.557,204.161H14.031a3.318,3.318,0,0,1,0-6.636H38.557a3.318,3.318,0,0,1,0,6.636" transform="translate(839.488 27.361)" fill="#037667"/>
    <path id="패스_2774" data-name="패스 2774" d="M267.911,199.727a4.354,4.354,0,1,1,4.353,4.353,4.353,4.353,0,0,1-4.353-4.353" transform="translate(706.035 28.477)" fill="#71c9b0"/>
  </g>
</svg>
