<svg id="그룹_3775" data-name="그룹 3775" xmlns="http://www.w3.org/2000/svg" width="29.15" height="36.053" viewBox="0 0 29.15 36.053">
  <path id="패스_2350" data-name="패스 2350" d="M77.6,208.092H52.756a2.152,2.152,0,0,1,0-4.3H77.6a2.152,2.152,0,0,1,0,4.3Z" transform="translate(-50.604 -203.789)" fill="#fff" opacity="0.9"/>
  <path id="패스_2351" data-name="패스 2351" d="M77.6,281.874H52.756a2.152,2.152,0,0,1,0-4.3H77.6a2.152,2.152,0,0,1,0,4.3Z" transform="translate(-50.604 -245.821)" fill="#fff" opacity="0.7"/>
  <path id="패스_2352" data-name="패스 2352" d="M52.756,239.842A2.152,2.152,0,0,1,50.6,237.69v-31.75a2.152,2.152,0,1,1,4.3,0v31.75A2.152,2.152,0,0,1,52.756,239.842Z" transform="translate(-50.604 -203.789)" fill="#fff"/>
  <path id="패스_2353" data-name="패스 2353" d="M110.5,239.842a2.151,2.151,0,0,1-2.152-2.152v-31.75a2.152,2.152,0,1,1,4.3,0v31.75A2.152,2.152,0,0,1,110.5,239.842Z" transform="translate(-83.5 -203.789)" fill="#fff" opacity="0.8"/>
  <path id="패스_2354" data-name="패스 2354" d="M74.328,225.34H66.454a1.721,1.721,0,0,1,0-3.443h7.873a1.721,1.721,0,0,1,0,3.443Z" transform="translate(-58.653 -214.105)" fill="#fff"/>
  <path id="패스_2355" data-name="패스 2355" d="M74.328,241.024H66.454a1.721,1.721,0,0,1,0-3.443h7.873a1.721,1.721,0,0,1,0,3.443Z" transform="translate(-58.653 -223.04)" fill="#fff"/>
  <path id="패스_2356" data-name="패스 2356" d="M96.721,225.34H95.8a1.721,1.721,0,0,1,0-3.443h.92a1.721,1.721,0,0,1,0,3.443Z" transform="translate(-75.371 -214.105)" fill="#fff" opacity="0.9"/>
  <path id="패스_2357" data-name="패스 2357" d="M96.721,241.024H95.8a1.721,1.721,0,0,1,0-3.443h.92a1.721,1.721,0,0,1,0,3.443Z" transform="translate(-75.371 -223.04)" fill="#fff" opacity="0.8"/>
  <path id="패스_2358" data-name="패스 2358" d="M74.328,256.707H66.454a1.721,1.721,0,0,1,0-3.443h7.873a1.721,1.721,0,0,1,0,3.443Z" transform="translate(-58.653 -231.974)" fill="#fff"/>
  <path id="패스_2359" data-name="패스 2359" d="M96.721,256.707H95.8a1.721,1.721,0,0,1,0-3.443h.92a1.721,1.721,0,0,1,0,3.443Z" transform="translate(-75.371 -231.974)" fill="#fff" opacity="0.8"/>
</svg>
