<svg xmlns="http://www.w3.org/2000/svg" width="32" height="32" viewBox="0 0 32 32">
  <g id="그룹_3742" data-name="그룹 3742" transform="translate(-559 -330)">
    <rect id="사각형_2267" data-name="사각형 2267" width="32" height="32" rx="7" transform="translate(559 330)" fill="#fff"/>
    <g id="그룹_3738" data-name="그룹 3738" transform="translate(1420.304 -293.919)">
      <path id="패스_2728" data-name="패스 2728" d="M-763.482,750.741a3.017,3.017,0,0,1-.29.506.915.915,0,0,1-.725.305h-10.918a1,1,0,0,1-1.05-.833,1,1,0,0,1,.929-1.165l.109,0q5.443,0,10.887,0a1,1,0,0,1,.966.586c.036.073.061.153.091.23Z" transform="translate(-73.822 -110.636)" fill="#707070"/>
      <path id="패스_2729" data-name="패스 2729" d="M-770.44,636.416q-2.476,0-4.952,0a1,1,0,0,1-.968-1.342,1,1,0,0,1,.872-.654c.047,0,.094,0,.141,0h9.857a1,1,0,0,1,1.023.706,1,1,0,0,1-.912,1.29c-.333.01-.666,0-1,0Z" transform="translate(-73.88)" fill="#707070"/>
      <path id="패스_2730" data-name="패스 2730" d="M-772.235,866.7c-1.067,0-2.135,0-3.2,0a1,1,0,0,1-1.024-.827.99.99,0,0,1,.922-1.167c.64-.014,1.281-.007,1.921-.007q2.281,0,4.561,0a1,1,0,0,1,1.015.652A1,1,0,0,1-769,866.7C-770.08,866.706-771.158,866.7-772.235,866.7Z" transform="translate(-73.823 -221.285)" fill="#707070"/>
      <path id="패스_2731" data-name="패스 2731" d="M-851.3,635.495a1.016,1.016,0,0,1-.983.974,1.012,1.012,0,0,1-1.02-.878,1.021,1.021,0,0,1,.979-1.124A1,1,0,0,1-851.3,635.495Z" transform="translate(0 -0.049)" fill="#707070"/>
      <path id="패스_2732" data-name="패스 2732" d="M-851.25,865.8a1.01,1.01,0,0,1-.924,1,1.035,1.035,0,0,1-1.077-1,1.007,1.007,0,0,1,1-1A1,1,0,0,1-851.25,865.8Z" transform="translate(-0.05 -221.385)" fill="#707070"/>
      <path id="패스_2733" data-name="패스 2733" d="M-851.25,750.625a1.012,1.012,0,0,1-.916,1,1.032,1.032,0,0,1-1.085-1.007,1.013,1.013,0,0,1,1.009-1A1.008,1.008,0,0,1-851.25,750.625Z" transform="translate(-0.05 -110.699)" fill="#707070"/>
    </g>
  </g>
</svg>
